<svg width="174" height="51" viewBox="0 0 174 51" fill="none" xmlns="http://www.w3.org/2000/svg">
<path d="M57.8869 44.6599C55.7809 44.6599 53.9895 44.2289 52.5127 43.3668C51.0631 42.477 49.9418 41.1979 49.1487 39.5294C48.3829 37.861 48 35.8588 48 33.523V20.6342H51.7742V32.8973C51.7742 35.6781 52.3896 37.7914 53.6203 39.2374C54.8511 40.6556 56.6424 41.3647 58.9945 41.3647C60.6628 41.3647 62.1124 40.9893 63.3431 40.2385C64.5738 39.4599 65.531 38.3754 66.2148 36.985C66.8985 35.5947 67.2404 33.9818 67.2404 32.1465L68.7173 33.0225C68.5532 35.3861 67.9788 37.4439 66.9942 39.1957C66.037 40.9476 64.7789 42.2963 63.22 43.2417C61.6611 44.1872 59.8834 44.6599 57.8869 44.6599ZM68.5121 44.1176L67.2404 36.1091V20.6342H71.0146V36.693L72.2864 44.1176H68.5121Z" fill="url(#paint0_linear_310_2)"/>
<path d="M77.3737 20.6342H81.1479V29.5187L80.9428 30.2695V34.0652L81.1479 35.2749V51H77.3737V20.6342ZM79.3839 32.3551C79.9856 29.908 80.9018 27.7668 82.1325 25.9316C83.3906 24.0963 84.8948 22.6642 86.6452 21.6353C88.4229 20.6064 90.3784 20.092 92.5117 20.092C94.7817 20.092 96.7919 20.6064 98.5422 21.6353C100.293 22.6642 101.66 24.0963 102.645 25.9316C103.657 27.7668 104.163 29.908 104.163 32.3551C104.163 34.7743 103.657 36.9155 102.645 38.7786C101.66 40.6139 100.293 42.0599 98.5422 43.1166C96.7919 44.1455 94.7817 44.6599 92.5117 44.6599C90.3784 44.6599 88.4229 44.1455 86.6452 43.1166C84.8948 42.0877 83.3906 40.6556 82.1325 38.8203C80.9018 36.9572 79.9856 34.8021 79.3839 32.3551ZM100.306 32.3551C100.306 30.5754 99.9371 29.0043 99.1986 27.6417C98.4875 26.2791 97.4893 25.2225 96.2039 24.4717C94.9458 23.693 93.5099 23.3037 91.8963 23.3037C90.2553 23.3037 88.7374 23.693 87.3426 24.4717C85.9751 25.2225 84.7581 26.2791 83.6914 27.6417C82.6248 29.0043 81.736 30.5754 81.0249 32.3551C81.736 34.1348 82.6248 35.7059 83.6914 37.0684C84.7581 38.431 85.9751 39.5016 87.3426 40.2802C88.7374 41.031 90.2553 41.4064 91.8963 41.4064C93.5099 41.4064 94.9458 41.031 96.2039 40.2802C97.4893 39.5016 98.4875 38.431 99.1986 37.0684C99.9371 35.7059 100.306 34.1348 100.306 32.3551Z" fill="url(#paint1_linear_310_2)"/>
<path d="M108.943 12H112.717V44.1176H108.943V12Z" fill="url(#paint2_linear_310_2)"/>
<path d="M140.787 44.1176L139.966 35.2332L140.992 32.3551L139.966 29.5187L140.787 20.6342H144.643L143.576 32.3551L144.643 44.1176H140.787ZM142.264 32.3551C141.662 34.8021 140.732 36.9572 139.474 38.8203C138.243 40.6556 136.739 42.0877 134.961 43.1166C133.211 44.1455 131.269 44.6599 129.136 44.6599C126.866 44.6599 124.856 44.1455 123.105 43.1166C121.355 42.0599 119.974 40.6139 118.962 38.7786C117.977 36.9155 117.485 34.7743 117.485 32.3551C117.485 29.908 117.977 27.7668 118.962 25.9316C119.974 24.0963 121.355 22.6642 123.105 21.6353C124.856 20.6064 126.866 20.092 129.136 20.092C131.269 20.092 133.211 20.6064 134.961 21.6353C136.739 22.6642 138.257 24.0963 139.515 25.9316C140.773 27.7668 141.689 29.908 142.264 32.3551ZM121.341 32.3551C121.341 34.1348 121.697 35.7059 122.408 37.0684C123.146 38.431 124.144 39.5016 125.403 40.2802C126.688 41.031 128.138 41.4064 129.751 41.4064C131.392 41.4064 132.896 41.031 134.264 40.2802C135.659 39.5016 136.889 38.431 137.956 37.0684C139.05 35.7059 139.939 34.1348 140.623 32.3551C139.939 30.5754 139.05 29.0043 137.956 27.6417C136.889 26.2791 135.659 25.2225 134.264 24.4717C132.896 23.693 131.392 23.3037 129.751 23.3037C128.138 23.3037 126.688 23.693 125.403 24.4717C124.144 25.2225 123.146 26.2791 122.408 27.6417C121.697 29.0043 121.341 30.5754 121.341 32.3551Z" fill="url(#paint3_linear_310_2)"/>
<path d="M149.221 20.6342H152.996L154.308 28.6011V44.1176H150.534V28.0588L149.221 20.6342ZM163.867 20.092C166.028 20.092 167.86 20.5369 169.364 21.4267C170.868 22.2888 172.017 23.554 172.81 25.2225C173.603 26.8631 174 28.8513 174 31.1872V44.1176H170.226V31.8545C170.226 29.046 169.583 26.9326 168.298 25.5144C167.04 24.0684 165.193 23.3455 162.759 23.3455C161.064 23.3455 159.573 23.7348 158.288 24.5134C157.03 25.292 156.045 26.3765 155.334 27.7668C154.65 29.1294 154.308 30.7283 154.308 32.5636L152.79 31.4791C152.982 29.1433 153.57 27.1273 154.554 25.431C155.539 23.7348 156.824 22.4278 158.411 21.5102C160.024 20.5647 161.843 20.092 163.867 20.092Z" fill="url(#paint4_linear_310_2)"/>
<path d="M0.81665 38.027L14.197 36.7561L18.5314 38.3447L22.8031 36.7561L36.1834 38.027L36.1834 44L18.5314 42.3479L0.81665 44L0.81665 38.027ZM18.5314 5.97301C15.8512 5.97301 13.485 6.52372 11.4329 7.62512C9.38087 8.76889 7.76854 10.3151 6.59593 12.2637C5.4652 14.2547 4.89983 16.4999 4.89983 18.9993C4.89983 21.541 5.4652 23.8709 6.59593 25.989C7.76854 28.1494 9.38087 30.0557 11.4329 31.7078C13.485 33.4023 15.8512 34.779 18.5314 35.8381C19.7125 35.3714 20.8326 34.843 21.8917 34.253C22.2007 34.0808 22.5045 33.9034 22.8031 33.7208C23.8036 33.1087 24.7459 32.4378 25.6299 31.7078C27.6819 30.0557 29.2733 28.1494 30.4041 25.989C31.5767 23.8709 32.163 21.541 32.163 18.9993C32.163 16.4999 31.5767 14.2547 30.4041 12.2637C29.2733 10.3151 27.6819 8.76889 25.6299 7.62512C23.5778 6.52372 21.2117 5.97301 18.5314 5.97301Z" fill="#3B30BA"/>
<defs>
<linearGradient id="paint0_linear_310_2" x1="116.856" y1="47.6148" x2="116.856" y2="7.87467" gradientUnits="userSpaceOnUse">
<stop stop-color="#3B30BA"/>
<stop offset="1" stop-color="#665CD7"/>
</linearGradient>
<linearGradient id="paint1_linear_310_2" x1="116.856" y1="47.6148" x2="116.856" y2="7.87467" gradientUnits="userSpaceOnUse">
<stop stop-color="#3B30BA"/>
<stop offset="1" stop-color="#665CD7"/>
</linearGradient>
<linearGradient id="paint2_linear_310_2" x1="116.856" y1="47.6148" x2="116.856" y2="7.87467" gradientUnits="userSpaceOnUse">
<stop stop-color="#3B30BA"/>
<stop offset="1" stop-color="#665CD7"/>
</linearGradient>
<linearGradient id="paint3_linear_310_2" x1="116.856" y1="47.6148" x2="116.856" y2="7.87467" gradientUnits="userSpaceOnUse">
<stop stop-color="#3B30BA"/>
<stop offset="1" stop-color="#665CD7"/>
</linearGradient>
<linearGradient id="paint4_linear_310_2" x1="116.856" y1="47.6148" x2="116.856" y2="7.87467" gradientUnits="userSpaceOnUse">
<stop stop-color="#3B30BA"/>
<stop offset="1" stop-color="#665CD7"/>
</linearGradient>
</defs>
</svg>
